<?xml version="1.0" standalone="no"?>
<svg xmlns:xlink="http://www.w3.org/1999/xlink" id="wave" style="transform:rotate(0deg); transition: 0.3s" viewBox="0 0 1440 280" version="1.1" xmlns="http://www.w3.org/2000/svg"><defs><linearGradient id="sw-gradient-0" x1="0" x2="0" y1="1" y2="0"><stop stop-color="rgba(103, 51, 151, 1)" offset="0%"/><stop stop-color="rgba(196, 181, 253, 1)" offset="100%"/></linearGradient></defs><path style="transform:translate(0, 0px); opacity:1" fill="url(#sw-gradient-0)" d="M0,112L30,126C60,140,120,168,180,158.7C240,149,300,103,360,107.3C420,112,480,168,540,168C600,168,660,112,720,112C780,112,840,168,900,191.3C960,215,1020,205,1080,191.3C1140,177,1200,159,1260,144.7C1320,131,1380,121,1440,130.7C1500,140,1560,168,1620,177.3C1680,187,1740,177,1800,154C1860,131,1920,93,1980,88.7C2040,84,2100,112,2160,107.3C2220,103,2280,65,2340,84C2400,103,2460,177,2520,177.3C2580,177,2640,103,2700,102.7C2760,103,2820,177,2880,172.7C2940,168,3000,84,3060,74.7C3120,65,3180,131,3240,144.7C3300,159,3360,121,3420,130.7C3480,140,3540,196,3600,186.7C3660,177,3720,103,3780,74.7C3840,47,3900,65,3960,98C4020,131,4080,177,4140,196C4200,215,4260,205,4290,200.7L4320,196L4320,280L4290,280C4260,280,4200,280,4140,280C4080,280,4020,280,3960,280C3900,280,3840,280,3780,280C3720,280,3660,280,3600,280C3540,280,3480,280,3420,280C3360,280,3300,280,3240,280C3180,280,3120,280,3060,280C3000,280,2940,280,2880,280C2820,280,2760,280,2700,280C2640,280,2580,280,2520,280C2460,280,2400,280,2340,280C2280,280,2220,280,2160,280C2100,280,2040,280,1980,280C1920,280,1860,280,1800,280C1740,280,1680,280,1620,280C1560,280,1500,280,1440,280C1380,280,1320,280,1260,280C1200,280,1140,280,1080,280C1020,280,960,280,900,280C840,280,780,280,720,280C660,280,600,280,540,280C480,280,420,280,360,280C300,280,240,280,180,280C120,280,60,280,30,280L0,280Z"/></svg>