<?xml version="1.0" standalone="no"?>
<svg xmlns:xlink="http://www.w3.org/1999/xlink" id="wave" style="transform:rotate(0deg); transition: 0.3s" viewBox="0 0 1440 210" version="1.1" xmlns="http://www.w3.org/2000/svg"><defs><linearGradient id="sw-gradient-0" x1="0" x2="0" y1="1" y2="0"><stop stop-color="rgba(103, 51, 151, 1)" offset="0%"/><stop stop-color="rgba(103, 51, 151, 1)" offset="100%"/></linearGradient></defs><path style="transform:translate(0, 0px); opacity:1" fill="url(#sw-gradient-0)" d="M0,126L18.5,108.5C36.9,91,74,56,111,38.5C147.7,21,185,21,222,49C258.5,77,295,133,332,161C369.2,189,406,189,443,171.5C480,154,517,119,554,94.5C590.8,70,628,56,665,73.5C701.5,91,738,140,775,157.5C812.3,175,849,161,886,129.5C923.1,98,960,49,997,49C1033.8,49,1071,98,1108,122.5C1144.6,147,1182,147,1218,133C1255.4,119,1292,91,1329,80.5C1366.2,70,1403,77,1440,77C1476.9,77,1514,70,1551,70C1587.7,70,1625,77,1662,70C1698.5,63,1735,42,1772,28C1809.2,14,1846,7,1883,10.5C1920,14,1957,28,1994,38.5C2030.8,49,2068,56,2105,56C2141.5,56,2178,49,2215,45.5C2252.3,42,2289,42,2326,59.5C2363.1,77,2400,112,2437,108.5C2473.8,105,2511,63,2548,52.5C2584.6,42,2622,63,2640,73.5L2658.5,84L2658.5,210L2640,210C2621.5,210,2585,210,2548,210C2510.8,210,2474,210,2437,210C2400,210,2363,210,2326,210C2289.2,210,2252,210,2215,210C2178.5,210,2142,210,2105,210C2067.7,210,2031,210,1994,210C1956.9,210,1920,210,1883,210C1846.2,210,1809,210,1772,210C1735.4,210,1698,210,1662,210C1624.6,210,1588,210,1551,210C1513.8,210,1477,210,1440,210C1403.1,210,1366,210,1329,210C1292.3,210,1255,210,1218,210C1181.5,210,1145,210,1108,210C1070.8,210,1034,210,997,210C960,210,923,210,886,210C849.2,210,812,210,775,210C738.5,210,702,210,665,210C627.7,210,591,210,554,210C516.9,210,480,210,443,210C406.2,210,369,210,332,210C295.4,210,258,210,222,210C184.6,210,148,210,111,210C73.8,210,37,210,18,210L0,210Z"/></svg>